<?xml version="1.0" encoding="UTF-8" standalone="no"?>
<!DOCTYPE svg PUBLIC "-//W3C//DTD SVG 1.1//EN"
 "http://www.w3.org/Graphics/SVG/1.1/DTD/svg11.dtd">
<!-- Generated by graphviz version 2.38.0 (20140413.2041)
 -->
<!-- Title: Avast_Password_Manager Pages: 1 -->
<svg width="1119pt" height="315pt"
 viewBox="0.00 0.00 1118.85 315.00" xmlns="http://www.w3.org/2000/svg" xmlns:xlink="http://www.w3.org/1999/xlink">
<g id="graph0" class="graph" transform="scale(1 1) rotate(0) translate(4 311)">
<title>Avast_Password_Manager</title>
<polygon fill="white" stroke="none" points="-4,4 -4,-311 1114.85,-311 1114.85,4 -4,4"/>
<g id="clust1" class="cluster"><title>cluster_Topee</title>
<polygon fill="blanchedalmond" stroke="blanchedalmond" points="420.854,-60 420.854,-135 1102.85,-135 1102.85,-60 420.854,-60"/>
<text text-anchor="middle" x="761.854" y="-119.8" font-family="Times New Roman,serif" font-size="14.00">Topee</text>
</g>
<g id="clust2" class="cluster"><title>cluster_Extension</title>
<polygon fill="none" stroke="black" points="8,-8 8,-299 400.854,-299 400.854,-8 8,-8"/>
<text text-anchor="middle" x="204.427" y="-283.8" font-family="Times New Roman,serif" font-size="14.00">Cross&#45;browser extension project using Topee</text>
</g>
<!-- requestHandlers -->
<g id="node1" class="node"><title>requestHandlers</title>
<polygon fill="none" stroke="black" points="787.854,-104 640.854,-104 640.854,-68 787.854,-68 787.854,-104"/>
<text text-anchor="middle" x="714.354" y="-82.3" font-family="Times New Roman,serif" font-size="14.00">request handlers [swift]</text>
</g>
<!-- webView -->
<g id="node4" class="node"><title>webView</title>
<polygon fill="none" stroke="black" points="891.854,-104 823.854,-104 823.854,-68 891.854,-68 891.854,-104"/>
<text text-anchor="middle" x="857.854" y="-82.3" font-family="Times New Roman,serif" font-size="14.00">webView</text>
</g>
<!-- requestHandlers&#45;&gt;webView -->
<g id="edge1" class="edge"><title>requestHandlers&#45;&gt;webView</title>
<path fill="none" stroke="black" d="M788.177,-79.2526C796.84,-79.2741 805.462,-79.4307 813.523,-79.7223"/>
<polygon fill="black" stroke="black" points="813.604,-83.2295 823.752,-80.1835 813.919,-76.2366 813.604,-83.2295"/>
</g>
<!-- chromeApi -->
<g id="node2" class="node"><title>chromeApi</title>
<polygon fill="none" stroke="black" points="1094.85,-104 927.854,-104 927.854,-68 1094.85,-68 1094.85,-104"/>
<text text-anchor="middle" x="1011.35" y="-82.3" font-family="Times New Roman,serif" font-size="14.00">Chrome API emulation [js]</text>
</g>
<!-- chromeApi&#45;&gt;webView -->
<g id="edge3" class="edge"><title>chromeApi&#45;&gt;webView</title>
<path fill="none" stroke="black" d="M927.85,-92.7261C919.059,-92.6637 910.389,-92.4792 902.322,-92.1727"/>
<polygon fill="black" stroke="black" points="902.253,-88.6658 892.102,-91.6993 901.929,-95.6583 902.253,-88.6658"/>
</g>
<!-- contentMsg -->
<g id="node3" class="node"><title>contentMsg</title>
<polygon fill="none" stroke="black" points="604.854,-104 428.854,-104 428.854,-68 604.854,-68 604.854,-104"/>
<text text-anchor="middle" x="516.854" y="-82.3" font-family="Times New Roman,serif" font-size="14.00">content script messaging [js]</text>
</g>
<!-- contentMsg&#45;&gt;requestHandlers -->
<g id="edge5" class="edge"><title>contentMsg&#45;&gt;requestHandlers</title>
<path fill="none" stroke="black" d="M605.027,-86C613.497,-86 622.073,-86 630.499,-86"/>
<polygon fill="black" stroke="black" points="630.684,-89.5001 640.684,-86 630.684,-82.5001 630.684,-89.5001"/>
</g>
<!-- webView&#45;&gt;requestHandlers -->
<g id="edge4" class="edge"><title>webView&#45;&gt;requestHandlers</title>
<path fill="none" stroke="black" d="M823.752,-91.8165C815.948,-92.2449 807.282,-92.5259 798.347,-92.6594"/>
<polygon fill="black" stroke="black" points="798.146,-89.1609 788.177,-92.7474 798.207,-96.1606 798.146,-89.1609"/>
</g>
<!-- webView&#45;&gt;chromeApi -->
<g id="edge2" class="edge"><title>webView&#45;&gt;chromeApi</title>
<path fill="none" stroke="black" d="M892.102,-80.3007C899.886,-79.8685 908.555,-79.5697 917.564,-79.4042"/>
<polygon fill="black" stroke="black" points="917.895,-82.9003 927.85,-79.2739 917.806,-75.9009 917.895,-82.9003"/>
</g>
<!-- carthage -->
<g id="node5" class="node"><title>carthage</title>
<polygon fill="none" stroke="black" points="380.884,-268 59.4864,-268 27.9708,-232 349.368,-232 380.884,-268"/>
<text text-anchor="middle" x="204.427" y="-246.3" font-family="Times New Roman,serif" font-size="14.00">get &amp; build Topee via Carthage</text>
</g>
<!-- resources -->
<g id="node6" class="node"><title>resources</title>
<polygon fill="none" stroke="black" points="392.782,-214 49.7134,-214 16.0727,-178 359.141,-178 392.782,-214"/>
<text text-anchor="middle" x="204.427" y="-192.3" font-family="Times New Roman,serif" font-size="14.00">prepare script as appex resources</text>
</g>
<!-- backgroundScript -->
<g id="node7" class="node"><title>backgroundScript</title>
<polygon fill="none" stroke="black" points="274.427,-52 134.427,-52 134.427,-16 274.427,-16 274.427,-52"/>
<text text-anchor="middle" x="204.427" y="-30.3" font-family="Times New Roman,serif" font-size="14.00">background script [js]</text>
</g>
<!-- backgroundScript&#45;&gt;chromeApi -->
<g id="edge6" class="edge"><title>backgroundScript&#45;&gt;chromeApi</title>
<path fill="none" stroke="black" d="M274.47,-32.2531C398.611,-30.058 667.492,-29.6187 891.854,-59 904.692,-60.6811 918.183,-63.1075 931.277,-65.8252"/>
<polygon fill="black" stroke="black" points="930.684,-69.2775 941.195,-67.9528 932.152,-62.4332 930.684,-69.2775"/>
</g>
<!-- contentScript -->
<g id="node8" class="node"><title>contentScript</title>
<polygon fill="none" stroke="black" points="261.927,-106 146.927,-106 146.927,-70 261.927,-70 261.927,-106"/>
<text text-anchor="middle" x="204.427" y="-84.3" font-family="Times New Roman,serif" font-size="14.00">content script [js]</text>
</g>
<!-- contentScript&#45;&gt;contentMsg -->
<g id="edge7" class="edge"><title>contentScript&#45;&gt;contentMsg</title>
<path fill="none" stroke="black" d="M262.003,-87.6355C305.614,-87.3545 366.963,-86.9593 418.426,-86.6277"/>
<polygon fill="black" stroke="black" points="418.601,-90.1267 428.578,-86.5623 418.556,-83.1269 418.601,-90.1267"/>
</g>
<!-- platformCode -->
<g id="node9" class="node"><title>platformCode</title>
<polygon fill="none" stroke="black" points="343.427,-160 65.4272,-160 65.4272,-124 343.427,-124 343.427,-160"/>
<text text-anchor="middle" x="204.427" y="-138.3" font-family="Times New Roman,serif" font-size="14.00">platform code (browserAction icon, ...) [swift]</text>
</g>
<!-- platformCode&#45;&gt;requestHandlers -->
<g id="edge8" class="edge"><title>platformCode&#45;&gt;requestHandlers</title>
<path fill="none" stroke="black" d="M343.816,-137.791C421.01,-133.983 518.687,-126.745 604.854,-113 615.9,-111.238 627.47,-108.901 638.769,-106.338"/>
<polygon fill="black" stroke="black" points="639.669,-109.722 648.608,-104.036 638.074,-102.906 639.669,-109.722"/>
</g>
<!-- platformCode&#45;&gt;webView -->
<g id="edge9" class="edge"><title>platformCode&#45;&gt;webView</title>
<path fill="none" stroke="black" d="M343.628,-150.362C463.099,-154.005 639.45,-150.737 787.854,-113 796.55,-110.789 805.63,-107.778 814.238,-104.568"/>
<polygon fill="black" stroke="black" points="815.656,-107.772 823.712,-100.891 813.123,-101.246 815.656,-107.772"/>
</g>
</g>
</svg>
