<?xml version="1.0" encoding="UTF-8" standalone="no"?>
<!DOCTYPE svg PUBLIC "-//W3C//DTD SVG 1.1//EN"
 "http://www.w3.org/Graphics/SVG/1.1/DTD/svg11.dtd">
<!-- Generated by graphviz version 2.38.0 (20140413.2041)
 -->
<!-- Title: Avast_Password_Manager Pages: 1 -->
<svg width="1683pt" height="1049pt"
 viewBox="0.00 0.00 1683.00 1049.00" xmlns="http://www.w3.org/2000/svg" xmlns:xlink="http://www.w3.org/1999/xlink">
<g id="graph0" class="graph" transform="scale(1 1) rotate(0) translate(4 1045)">
<title>Avast_Password_Manager</title>
<polygon fill="white" stroke="none" points="-4,4 -4,-1045 1679,-1045 1679,4 -4,4"/>
<g id="clust1" class="cluster"><title>cluster_webview</title>
<polygon fill="cornsilk" stroke="cornsilk" points="8,-457 8,-758 550,-758 550,-457 8,-457"/>
<text text-anchor="middle" x="279" y="-742.8" font-family="Times New Roman,serif" font-size="14.00">webview</text>
</g>
<g id="clust2" class="cluster"><title>cluster_background</title>
<polygon fill="cornsilk" stroke="rosybrown" points="16,-565 16,-727 430,-727 430,-565 16,-565"/>
<text text-anchor="middle" x="223" y="-711.8" font-family="Times New Roman,serif" font-size="14.00">extension background script</text>
</g>
<g id="clust3" class="cluster"><title>cluster_swift</title>
<polygon fill="cornsilk" stroke="cornsilk" points="103,-168 103,-424 551,-424 551,-168 103,-168"/>
<text text-anchor="middle" x="327" y="-408.8" font-family="Times New Roman,serif" font-size="14.00">Topee (swift)</text>
</g>
<g id="clust4" class="cluster"><title>cluster_content_script</title>
<polygon fill="cornsilk" stroke="cornsilk" points="559,-8 559,-330 1109,-330 1109,-8 559,-8"/>
<text text-anchor="middle" x="834" y="-314.8" font-family="Times New Roman,serif" font-size="14.00">content script</text>
</g>
<g id="clust5" class="cluster"><title>cluster_iframe</title>
<polygon fill="cornsilk" stroke="cornsilk" points="1117,-255 1117,-939 1667,-939 1667,-255 1117,-255"/>
<text text-anchor="middle" x="1392" y="-923.8" font-family="Times New Roman,serif" font-size="14.00">safari&#45;extension:// iframe</text>
</g>
<g id="clust6" class="cluster"><title>cluster_extension</title>
<polygon fill="cornsilk" stroke="cornsilk" points="1206,-958 1206,-1033 1280,-1033 1280,-958 1206,-958"/>
<text text-anchor="middle" x="1243" y="-1017.8" font-family="Times New Roman,serif" font-size="14.00">extension</text>
</g>
<!-- wv_manageRequest -->
<g id="node1" class="node"><title>wv_manageRequest</title>
<polygon fill="none" stroke="black" points="542,-696 438,-696 438,-660 542,-660 542,-696"/>
<text text-anchor="middle" x="490" y="-674.3" font-family="Times New Roman,serif" font-size="14.00">manageRequest</text>
</g>
<!-- function iframeRequestHandler(message,sender,sendResponse){...} -->
<g id="node4" class="node"><title>function iframeRequestHandler(message,sender,sendResponse){...}</title>
<polygon fill="none" stroke="black" points="421.5,-609 24.5,-609 24.5,-573 421.5,-573 421.5,-609"/>
<text text-anchor="middle" x="223" y="-587.3" font-family="Times New Roman,serif" font-size="14.00">function iframeRequestHandler(message,sender,sendResponse){...}</text>
</g>
<!-- wv_manageRequest&#45;&gt;function iframeRequestHandler(message,sender,sendResponse){...} -->
<g id="edge2" class="edge"><title>wv_manageRequest&#45;&gt;function iframeRequestHandler(message,sender,sendResponse){...}</title>
<path fill="none" stroke="black" d="M437.886,-660.409C394.531,-646.607 332.657,-626.91 286.428,-612.192"/>
<polygon fill="black" stroke="black" points="287.404,-608.83 276.813,-609.131 285.28,-615.5 287.404,-608.83"/>
</g>
<!-- wv_webkit_messageHandlers_content_postMessage -->
<g id="node2" class="node"><title>wv_webkit_messageHandlers_content_postMessage</title>
<polygon fill="none" stroke="black" points="356,-501 80,-501 80,-465 356,-465 356,-501"/>
<text text-anchor="middle" x="218" y="-479.3" font-family="Times New Roman,serif" font-size="14.00">webkit.messageHandlers.content.postMessage</text>
</g>
<!-- swift_userContentController -->
<g id="node8" class="node"><title>swift_userContentController</title>
<polygon fill="none" stroke="black" points="281,-393 141,-393 141,-357 281,-357 281,-393"/>
<text text-anchor="middle" x="211" y="-371.3" font-family="Times New Roman,serif" font-size="14.00">userContentController</text>
</g>
<!-- wv_webkit_messageHandlers_content_postMessage&#45;&gt;swift_userContentController -->
<g id="edge7" class="edge"><title>wv_webkit_messageHandlers_content_postMessage&#45;&gt;swift_userContentController</title>
<path fill="none" stroke="darkred" d="M216.875,-464.969C215.78,-448.378 214.096,-422.883 212.811,-403.431"/>
<polygon fill="darkred" stroke="darkred" points="216.297,-403.088 212.145,-393.341 209.312,-403.55 216.297,-403.088"/>
</g>
<!-- chrome.runtime.onMessage.addListener -->
<g id="node3" class="node"><title>chrome.runtime.onMessage.addListener</title>
<polygon fill="none" stroke="black" points="342.5,-696 103.5,-696 103.5,-660 342.5,-660 342.5,-696"/>
<text text-anchor="middle" x="223" y="-674.3" font-family="Times New Roman,serif" font-size="14.00">chrome.runtime.onMessage.addListener</text>
</g>
<!-- chrome.runtime.onMessage.addListener&#45;&gt;function iframeRequestHandler(message,sender,sendResponse){...} -->
<g id="edge1" class="edge"><title>chrome.runtime.onMessage.addListener&#45;&gt;function iframeRequestHandler(message,sender,sendResponse){...}</title>
<path fill="none" stroke="black" stroke-dasharray="5,2" d="M223,-659.799C223,-648.163 223,-632.548 223,-619.237"/>
<polygon fill="black" stroke="black" points="226.5,-619.175 223,-609.175 219.5,-619.175 226.5,-619.175"/>
</g>
<!-- function iframeRequestHandler(message,sender,sendResponse){...}&#45;&gt;wv_webkit_messageHandlers_content_postMessage -->
<g id="edge3" class="edge"><title>function iframeRequestHandler(message,sender,sendResponse){...}&#45;&gt;wv_webkit_messageHandlers_content_postMessage</title>
<path fill="none" stroke="darkred" d="M222.197,-572.969C221.414,-556.378 220.211,-530.883 219.294,-511.431"/>
<polygon fill="darkred" stroke="darkred" points="222.785,-511.165 218.818,-501.341 215.793,-511.494 222.785,-511.165"/>
<text text-anchor="middle" x="263" y="-533.3" font-family="Times New Roman,serif" font-size="14.00">sendResponse</text>
</g>
<!-- swift_safariextensionhandler -->
<g id="node5" class="node"><title>swift_safariextensionhandler</title>
<polygon fill="none" stroke="black" points="463,-393 299,-393 299,-357 463,-357 463,-393"/>
<text text-anchor="middle" x="381" y="-371.3" font-family="Times New Roman,serif" font-size="14.00">SFSafariExtensionHandler</text>
</g>
<!-- swift_safariextensionbridge -->
<g id="node6" class="node"><title>swift_safariextensionbridge</title>
<polygon fill="none" stroke="black" points="463,-299 323,-299 323,-263 463,-263 463,-299"/>
<text text-anchor="middle" x="393" y="-277.3" font-family="Times New Roman,serif" font-size="14.00">SafariExtensionBridge</text>
</g>
<!-- swift_safariextensionhandler&#45;&gt;swift_safariextensionbridge -->
<g id="edge4" class="edge"><title>swift_safariextensionhandler&#45;&gt;swift_safariextensionbridge</title>
<path fill="none" stroke="black" d="M383.257,-356.696C385,-343.331 387.445,-324.587 389.45,-309.219"/>
<polygon fill="black" stroke="black" points="392.93,-309.596 390.753,-299.227 385.989,-308.69 392.93,-309.596"/>
</g>
<!-- swift_evaluatejs -->
<g id="node7" class="node"><title>swift_evaluatejs</title>
<polygon fill="none" stroke="black" points="542.5,-212 371.5,-212 371.5,-176 542.5,-176 542.5,-212"/>
<text text-anchor="middle" x="457" y="-190.3" font-family="Times New Roman,serif" font-size="14.00">webview.evaluateJavaScript</text>
</g>
<!-- swift_safariextensionbridge&#45;&gt;swift_evaluatejs -->
<g id="edge5" class="edge"><title>swift_safariextensionbridge&#45;&gt;swift_evaluatejs</title>
<path fill="none" stroke="black" d="M405.951,-262.799C415.147,-250.587 427.641,-233.992 437.967,-220.278"/>
<polygon fill="black" stroke="black" points="440.849,-222.269 444.068,-212.175 435.257,-218.059 440.849,-222.269"/>
</g>
<!-- swift_evaluatejs&#45;&gt;wv_manageRequest -->
<g id="edge6" class="edge"><title>swift_evaluatejs&#45;&gt;wv_manageRequest</title>
<path fill="none" stroke="black" d="M468.322,-212.108C478.212,-228.731 491,-255.047 491,-280 491,-592 491,-592 491,-592 491,-611.249 490.74,-632.948 490.486,-649.604"/>
<polygon fill="black" stroke="black" points="486.984,-649.689 490.322,-659.744 493.983,-649.802 486.984,-649.689"/>
</g>
<!-- swift_sendMessageToContentScript -->
<g id="node9" class="node"><title>swift_sendMessageToContentScript</title>
<polygon fill="none" stroke="black" points="304,-299 118,-299 118,-263 304,-263 304,-299"/>
<text text-anchor="middle" x="211" y="-277.3" font-family="Times New Roman,serif" font-size="14.00">sendMessageToContentScript</text>
</g>
<!-- swift_userContentController&#45;&gt;swift_sendMessageToContentScript -->
<g id="edge8" class="edge"><title>swift_userContentController&#45;&gt;swift_sendMessageToContentScript</title>
<path fill="none" stroke="darkred" d="M211,-356.696C211,-343.46 211,-324.947 211,-309.663"/>
<polygon fill="darkred" stroke="darkred" points="214.5,-309.227 211,-299.227 207.5,-309.227 214.5,-309.227"/>
</g>
<!-- swift_dispatchMessageToScript -->
<g id="node10" class="node"><title>swift_dispatchMessageToScript</title>
<polygon fill="none" stroke="black" points="353,-212 111,-212 111,-176 353,-176 353,-212"/>
<text text-anchor="middle" x="232" y="-190.3" font-family="Times New Roman,serif" font-size="14.00">SFSafariPage.dispatchMessageToScript</text>
</g>
<!-- swift_sendMessageToContentScript&#45;&gt;swift_dispatchMessageToScript -->
<g id="edge9" class="edge"><title>swift_sendMessageToContentScript&#45;&gt;swift_dispatchMessageToScript</title>
<path fill="none" stroke="darkred" d="M215.25,-262.799C218.125,-251.163 221.982,-235.548 225.271,-222.237"/>
<polygon fill="darkred" stroke="darkred" points="228.756,-222.723 227.757,-212.175 221.96,-221.044 228.756,-222.723"/>
</g>
<!-- cs_safari_self_addEventListener -->
<g id="node14" class="node"><title>cs_safari_self_addEventListener</title>
<polygon fill="none" stroke="black" points="1101.01,-125 816.851,-125 788.986,-89 1073.15,-89 1101.01,-125"/>
<text text-anchor="middle" x="945" y="-103.3" font-family="Times New Roman,serif" font-size="14.00">safari.self.addEventListener</text>
</g>
<!-- swift_dispatchMessageToScript&#45;&gt;cs_safari_self_addEventListener -->
<g id="edge14" class="edge"><title>swift_dispatchMessageToScript&#45;&gt;cs_safari_self_addEventListener</title>
<path fill="none" stroke="darkred" d="M314.688,-175.975C330.36,-173.068 346.652,-170.261 362,-168 367.455,-167.196 633.06,-139.947 803.848,-122.451"/>
<polygon fill="darkred" stroke="darkred" points="804.347,-125.918 813.938,-121.418 803.634,-118.955 804.347,-125.918"/>
</g>
<!-- cs_topee_iframe_request -->
<g id="node11" class="node"><title>cs_topee_iframe_request</title>
<polygon fill="none" stroke="black" points="1016.5,-212 873.5,-212 873.5,-176 1016.5,-176 1016.5,-212"/>
<text text-anchor="middle" x="945" y="-190.3" font-family="Times New Roman,serif" font-size="14.00">&#39;topee_iframe_request&#39;</text>
</g>
<!-- cs_safari_extension_dispatchMessage -->
<g id="node13" class="node"><title>cs_safari_extension_dispatchMessage</title>
<polygon fill="none" stroke="black" points="770.5,-125 567.5,-125 567.5,-89 770.5,-89 770.5,-125"/>
<text text-anchor="middle" x="669" y="-103.3" font-family="Times New Roman,serif" font-size="14.00">safari.extension.dispatchMessage</text>
</g>
<!-- cs_topee_iframe_request&#45;&gt;cs_safari_extension_dispatchMessage -->
<g id="edge11" class="edge"><title>cs_topee_iframe_request&#45;&gt;cs_safari_extension_dispatchMessage</title>
<path fill="none" stroke="black" d="M889.479,-175.901C844.656,-162.097 781.496,-142.645 734.258,-128.098"/>
<polygon fill="black" stroke="black" points="735.019,-124.67 724.432,-125.071 732.959,-131.36 735.019,-124.67"/>
</g>
<!-- cs_topee_iframe_request&#45;&gt;cs_safari_self_addEventListener -->
<g id="edge12" class="edge"><title>cs_topee_iframe_request&#45;&gt;cs_safari_self_addEventListener</title>
<path fill="none" stroke="black" stroke-dasharray="5,2" d="M945,-175.799C945,-164.163 945,-148.548 945,-135.237"/>
<polygon fill="black" stroke="black" points="948.5,-135.175 945,-125.175 941.5,-135.175 948.5,-135.175"/>
<text text-anchor="middle" x="1000.5" y="-146.8" font-family="Times New Roman,serif" font-size="14.00">listener message id?</text>
</g>
<!-- cs_window_addEventListener -->
<g id="node12" class="node"><title>cs_window_addEventListener</title>
<polygon fill="none" stroke="black" points="1025.5,-299 864.5,-299 864.5,-263 1025.5,-263 1025.5,-299"/>
<text text-anchor="middle" x="945" y="-277.3" font-family="Times New Roman,serif" font-size="14.00">window.addEventListener</text>
</g>
<!-- cs_window_addEventListener&#45;&gt;cs_topee_iframe_request -->
<g id="edge10" class="edge"><title>cs_window_addEventListener&#45;&gt;cs_topee_iframe_request</title>
<path fill="none" stroke="black" stroke-dasharray="5,2" d="M945,-262.799C945,-251.163 945,-235.548 945,-222.237"/>
<polygon fill="black" stroke="black" points="948.5,-222.175 945,-212.175 941.5,-222.175 948.5,-222.175"/>
</g>
<!-- cs_safari_extension_dispatchMessage&#45;&gt;swift_safariextensionhandler -->
<g id="edge13" class="edge"><title>cs_safari_extension_dispatchMessage&#45;&gt;swift_safariextensionhandler</title>
<path fill="none" stroke="black" d="M567.22,-111.523C412.425,-117.942 132.477,-134.128 102,-168 53.7966,-221.573 60.3536,-276.829 109,-330 134.682,-358.071 235.628,-351.355 288.485,-357.102"/>
<polygon fill="black" stroke="black" points="288.305,-360.61 298.684,-358.483 289.244,-353.673 288.305,-360.61"/>
</g>
<!-- cs_event_source_postMessage -->
<g id="node15" class="node"><title>cs_event_source_postMessage</title>
<polygon fill="none" stroke="black" points="1082,-52 918,-52 918,-16 1082,-16 1082,-52"/>
<text text-anchor="middle" x="1000" y="-30.3" font-family="Times New Roman,serif" font-size="14.00">event.source.postMessage</text>
</g>
<!-- cs_safari_self_addEventListener&#45;&gt;cs_event_source_postMessage -->
<g id="edge15" class="edge"><title>cs_safari_self_addEventListener&#45;&gt;cs_event_source_postMessage</title>
<path fill="none" stroke="darkred" d="M958.314,-88.8129C965.002,-80.179 973.232,-69.5551 980.607,-60.0341"/>
<polygon fill="darkred" stroke="darkred" points="983.452,-62.0778 986.809,-52.0288 977.918,-57.791 983.452,-62.0778"/>
</g>
<!-- decryptingCallback -->
<g id="node21" class="node"><title>decryptingCallback</title>
<polygon fill="none" stroke="black" points="1555.5,-501 1430.5,-501 1430.5,-465 1555.5,-465 1555.5,-501"/>
<text text-anchor="middle" x="1493" y="-479.3" font-family="Times New Roman,serif" font-size="14.00">decryptingCallback</text>
</g>
<!-- cs_event_source_postMessage&#45;&gt;decryptingCallback -->
<g id="edge29" class="edge"><title>cs_event_source_postMessage&#45;&gt;decryptingCallback</title>
<path fill="none" stroke="darkred" d="M1082.24,-38.5764C1222.51,-45.7869 1493,-65.0062 1493,-106 1493,-376 1493,-376 1493,-376 1493,-402.763 1493,-433.327 1493,-454.737"/>
<polygon fill="darkred" stroke="darkred" points="1489.5,-454.742 1493,-464.742 1496.5,-454.742 1489.5,-454.742"/>
<text text-anchor="middle" x="1506.5" y="-233.8" font-family="Times New Roman,serif" font-size="14.00">AES</text>
</g>
<!-- safari.self.addEventListener -->
<g id="node16" class="node"><title>safari.self.addEventListener</title>
<polygon fill="none" stroke="black" points="1659.01,-696 1374.85,-696 1346.99,-660 1631.15,-660 1659.01,-696"/>
<text text-anchor="middle" x="1503" y="-674.3" font-family="Times New Roman,serif" font-size="14.00">safari.self.addEventListener</text>
</g>
<!-- window.addEventListener -->
<g id="node20" class="node"><title>window.addEventListener</title>
<polygon fill="none" stroke="black" points="1575.5,-609 1414.5,-609 1414.5,-573 1575.5,-573 1575.5,-609"/>
<text text-anchor="middle" x="1495" y="-587.3" font-family="Times New Roman,serif" font-size="14.00">window.addEventListener</text>
</g>
<!-- safari.self.addEventListener&#45;&gt;window.addEventListener -->
<g id="edge19" class="edge"><title>safari.self.addEventListener&#45;&gt;window.addEventListener</title>
<path fill="none" stroke="black" d="M1501.38,-659.799C1500.29,-648.163 1498.82,-632.548 1497.56,-619.237"/>
<polygon fill="black" stroke="black" points="1501.04,-618.803 1496.62,-609.175 1494.07,-619.459 1501.04,-618.803"/>
</g>
<!-- freshListeners -->
<g id="node26" class="node"><title>freshListeners</title>
<ellipse fill="none" stroke="black" cx="1360" cy="-537" rx="61.99" ry="18"/>
<text text-anchor="middle" x="1360" y="-533.3" font-family="Times New Roman,serif" font-size="14.00">freshListeners</text>
</g>
<!-- safari.self.addEventListener&#45;&gt;freshListeners -->
<g id="edge26" class="edge"><title>safari.self.addEventListener&#45;&gt;freshListeners</title>
<path fill="none" stroke="black" stroke-dasharray="5,2" d="M1414.38,-659.886C1404.98,-655.267 1396.22,-649.414 1389,-642 1369.12,-621.602 1362.63,-588.783 1360.63,-565.472"/>
<polygon fill="black" stroke="black" points="1364.1,-564.959 1359.98,-555.199 1357.12,-565.399 1364.1,-564.959"/>
<text text-anchor="middle" x="1441.5" y="-630.8" font-family="Times New Roman,serif" font-size="14.00">listener message id</text>
</g>
<!-- chrome.runtime.sendMessage -->
<g id="node17" class="node"><title>chrome.runtime.sendMessage</title>
<polygon fill="none" stroke="black" points="1334,-908 1152,-908 1152,-872 1334,-872 1334,-908"/>
<text text-anchor="middle" x="1243" y="-886.3" font-family="Times New Roman,serif" font-size="14.00">chrome.runtime.sendMessage</text>
</g>
<!-- background&#45;bridge.dispatchRequest -->
<g id="node18" class="node"><title>background&#45;bridge.dispatchRequest</title>
<polygon fill="none" stroke="black" points="1353,-835 1133,-835 1133,-799 1353,-799 1353,-835"/>
<text text-anchor="middle" x="1243" y="-813.3" font-family="Times New Roman,serif" font-size="14.00">background&#45;bridge.dispatchRequest</text>
</g>
<!-- chrome.runtime.sendMessage&#45;&gt;background&#45;bridge.dispatchRequest -->
<g id="edge16" class="edge"><title>chrome.runtime.sendMessage&#45;&gt;background&#45;bridge.dispatchRequest</title>
<path fill="none" stroke="black" d="M1243,-871.813C1243,-863.789 1243,-854.047 1243,-845.069"/>
<polygon fill="black" stroke="black" points="1246.5,-845.029 1243,-835.029 1239.5,-845.029 1246.5,-845.029"/>
</g>
<!-- background&#45;bridge.dispatchRequest&#45;&gt;safari.self.addEventListener -->
<g id="edge17" class="edge"><title>background&#45;bridge.dispatchRequest&#45;&gt;safari.self.addEventListener</title>
<path fill="none" stroke="black" d="M1275.4,-798.926C1322.53,-774.092 1409.99,-728.008 1461.69,-700.768"/>
<polygon fill="black" stroke="black" points="1463.38,-703.832 1470.6,-696.074 1460.12,-697.639 1463.38,-703.832"/>
<text text-anchor="middle" x="1360" y="-769.8" font-family="Times New Roman,serif" font-size="14.00">callback?</text>
</g>
<!-- safari.extension.dispatchMessage -->
<g id="node19" class="node"><title>safari.extension.dispatchMessage</title>
<polygon fill="none" stroke="black" points="1328.5,-696 1125.5,-696 1125.5,-660 1328.5,-660 1328.5,-696"/>
<text text-anchor="middle" x="1227" y="-674.3" font-family="Times New Roman,serif" font-size="14.00">safari.extension.dispatchMessage</text>
</g>
<!-- background&#45;bridge.dispatchRequest&#45;&gt;safari.extension.dispatchMessage -->
<g id="edge18" class="edge"><title>background&#45;bridge.dispatchRequest&#45;&gt;safari.extension.dispatchMessage</title>
<path fill="none" stroke="black" d="M1241.01,-798.926C1238.3,-775.75 1233.43,-734.064 1230.21,-706.461"/>
<polygon fill="black" stroke="black" points="1233.66,-705.816 1229.02,-696.289 1226.7,-706.628 1233.66,-705.816"/>
</g>
<!-- got encryption key? -->
<g id="node22" class="node"><title>got encryption key?</title>
<text text-anchor="middle" x="1227" y="-587.3" font-family="Times New Roman,serif" font-size="14.00">got encryption key?</text>
</g>
<!-- safari.extension.dispatchMessage&#45;&gt;got encryption key? -->
<g id="edge21" class="edge"><title>safari.extension.dispatchMessage&#45;&gt;got encryption key?</title>
<path fill="none" stroke="black" d="M1227,-659.799C1227,-648.163 1227,-632.548 1227,-619.237"/>
<polygon fill="black" stroke="black" points="1230.5,-619.175 1227,-609.175 1223.5,-619.175 1230.5,-619.175"/>
</g>
<!-- window.addEventListener&#45;&gt;decryptingCallback -->
<g id="edge20" class="edge"><title>window.addEventListener&#45;&gt;decryptingCallback</title>
<path fill="none" stroke="black" stroke-dasharray="5,2" d="M1494.68,-572.969C1494.37,-556.378 1493.88,-530.883 1493.52,-511.431"/>
<polygon fill="black" stroke="black" points="1497.02,-511.273 1493.33,-501.341 1490.02,-511.405 1497.02,-511.273"/>
</g>
<!-- response -->
<g id="node27" class="node"><title>response</title>
<polygon fill="none" stroke="black" points="1464.5,-393 1397.5,-393 1397.5,-357 1464.5,-357 1464.5,-393"/>
<text text-anchor="middle" x="1431" y="-371.3" font-family="Times New Roman,serif" font-size="14.00">response</text>
</g>
<!-- decryptingCallback&#45;&gt;response -->
<g id="edge30" class="edge"><title>decryptingCallback&#45;&gt;response</title>
<path fill="none" stroke="darkred" d="M1450.83,-464.917C1443.74,-460.167 1437.31,-454.26 1433,-447 1425.28,-433.985 1424.5,-417.133 1425.78,-403.113"/>
<polygon fill="darkred" stroke="darkred" points="1429.27,-403.42 1427.08,-393.054 1422.33,-402.522 1429.27,-403.42"/>
<text text-anchor="middle" x="1456" y="-435.8" font-family="Times New Roman,serif" font-size="14.00">callback</text>
</g>
<!-- bufferMessage -->
<g id="node23" class="node"><title>bufferMessage</title>
<polygon fill="none" stroke="black" points="1225.5,-501 1126.5,-501 1126.5,-465 1225.5,-465 1225.5,-501"/>
<text text-anchor="middle" x="1176" y="-479.3" font-family="Times New Roman,serif" font-size="14.00">bufferMessage</text>
</g>
<!-- got encryption key?&#45;&gt;bufferMessage -->
<g id="edge22" class="edge"><title>got encryption key?&#45;&gt;bufferMessage</title>
<path fill="none" stroke="black" d="M1218.81,-572.969C1210.68,-556.071 1198.1,-529.935 1188.68,-510.356"/>
<polygon fill="black" stroke="black" points="1191.83,-508.834 1184.34,-501.341 1185.52,-511.869 1191.83,-508.834"/>
<text text-anchor="middle" x="1212.5" y="-533.3" font-family="Times New Roman,serif" font-size="14.00">&#45;</text>
</g>
<!-- dispatchMessage -->
<g id="node24" class="node"><title>dispatchMessage</title>
<polygon fill="none" stroke="black" points="1294.5,-393 1181.5,-393 1181.5,-357 1294.5,-357 1294.5,-393"/>
<text text-anchor="middle" x="1238" y="-371.3" font-family="Times New Roman,serif" font-size="14.00">dispatchMessage</text>
</g>
<!-- got encryption key?&#45;&gt;dispatchMessage -->
<g id="edge23" class="edge"><title>got encryption key?&#45;&gt;dispatchMessage</title>
<path fill="none" stroke="black" d="M1228.58,-572.954C1230.18,-555.051 1232.61,-526.07 1234,-501 1235.85,-467.574 1236.92,-429.069 1237.48,-403.728"/>
<polygon fill="black" stroke="black" points="1240.99,-403.473 1237.7,-393.402 1233.99,-403.326 1240.99,-403.473"/>
<text text-anchor="middle" x="1240.5" y="-479.3" font-family="Times New Roman,serif" font-size="14.00">+</text>
</g>
<!-- bufferMessage&#45;&gt;dispatchMessage -->
<g id="edge24" class="edge"><title>bufferMessage&#45;&gt;dispatchMessage</title>
<path fill="none" stroke="black" stroke-dasharray="5,2" d="M1185.96,-464.969C1195.89,-447.994 1211.27,-421.698 1222.74,-402.09"/>
<polygon fill="black" stroke="black" points="1225.83,-403.74 1227.86,-393.341 1219.79,-400.205 1225.83,-403.74"/>
</g>
<!-- window.parent.postMessage -->
<g id="node25" class="node"><title>window.parent.postMessage</title>
<polygon fill="none" stroke="black" points="1308,-299 1132,-299 1132,-263 1308,-263 1308,-299"/>
<text text-anchor="middle" x="1220" y="-277.3" font-family="Times New Roman,serif" font-size="14.00">window.parent.postMessage</text>
</g>
<!-- dispatchMessage&#45;&gt;window.parent.postMessage -->
<g id="edge25" class="edge"><title>dispatchMessage&#45;&gt;window.parent.postMessage</title>
<path fill="none" stroke="black" d="M1234.61,-356.696C1232,-343.331 1228.33,-324.587 1225.33,-309.219"/>
<polygon fill="black" stroke="black" points="1228.73,-308.369 1223.37,-299.227 1221.86,-309.713 1228.73,-308.369"/>
</g>
<!-- window.parent.postMessage&#45;&gt;cs_topee_iframe_request -->
<g id="edge28" class="edge"><title>window.parent.postMessage&#45;&gt;cs_topee_iframe_request</title>
<path fill="none" stroke="black" d="M1164.68,-262.901C1120.02,-249.097 1057.09,-229.645 1010.02,-215.098"/>
<polygon fill="black" stroke="black" points="1010.82,-211.681 1000.23,-212.071 1008.75,-218.368 1010.82,-211.681"/>
<text text-anchor="middle" x="1112.5" y="-233.8" font-family="Times New Roman,serif" font-size="14.00">AES</text>
</g>
<!-- freshListeners&#45;&gt;dispatchMessage -->
<g id="edge27" class="edge"><title>freshListeners&#45;&gt;dispatchMessage</title>
<path fill="none" stroke="black" stroke-dasharray="5,2" d="M1337.79,-520.175C1330.71,-514.563 1323.13,-507.913 1317,-501 1289.69,-470.212 1265.6,-428.965 1251.41,-402.432"/>
<polygon fill="black" stroke="black" points="1254.4,-400.59 1246.65,-393.369 1248.2,-403.849 1254.4,-400.59"/>
<text text-anchor="middle" x="1369.5" y="-479.3" font-family="Times New Roman,serif" font-size="14.00">listener message id</text>
</g>
<!-- request -->
<g id="node28" class="node"><title>request</title>
<polygon fill="none" stroke="black" points="1271.5,-1002 1214.5,-1002 1214.5,-966 1271.5,-966 1271.5,-1002"/>
<text text-anchor="middle" x="1243" y="-980.3" font-family="Times New Roman,serif" font-size="14.00">request</text>
</g>
<!-- request&#45;&gt;chrome.runtime.sendMessage -->
<g id="edge31" class="edge"><title>request&#45;&gt;chrome.runtime.sendMessage</title>
<path fill="none" stroke="black" d="M1243,-965.696C1243,-952.46 1243,-933.947 1243,-918.663"/>
<polygon fill="black" stroke="black" points="1246.5,-918.227 1243,-908.227 1239.5,-918.227 1246.5,-918.227"/>
</g>
</g>
</svg>
