<?xml version="1.0" encoding="UTF-8" standalone="no"?>
<!DOCTYPE svg PUBLIC "-//W3C//DTD SVG 1.1//EN"
 "http://www.w3.org/Graphics/SVG/1.1/DTD/svg11.dtd">
<!-- Generated by graphviz version 2.38.0 (20140413.2041)
 -->
<!-- Title: Avast_Password_Manager Pages: 1 -->
<svg width="1756pt" height="955pt"
 viewBox="0.00 0.00 1756.00 955.00" xmlns="http://www.w3.org/2000/svg" xmlns:xlink="http://www.w3.org/1999/xlink">
<g id="graph0" class="graph" transform="scale(1 1) rotate(0) translate(4 951)">
<title>Avast_Password_Manager</title>
<polygon fill="white" stroke="none" points="-4,4 -4,-951 1752,-951 1752,4 -4,4"/>
<g id="clust1" class="cluster"><title>cluster_webview</title>
<polygon fill="cornsilk" stroke="cornsilk" points="8,-457 8,-758 550,-758 550,-457 8,-457"/>
<text text-anchor="middle" x="279" y="-742.8" font-family="Times New Roman,serif" font-size="14.00">webview</text>
</g>
<g id="clust2" class="cluster"><title>cluster_background</title>
<polygon fill="cornsilk" stroke="rosybrown" points="128,-565 128,-727 542,-727 542,-565 128,-565"/>
<text text-anchor="middle" x="335" y="-711.8" font-family="Times New Roman,serif" font-size="14.00">extension background script</text>
</g>
<g id="clust3" class="cluster"><title>cluster_swift</title>
<polygon fill="cornsilk" stroke="cornsilk" points="9,-168 9,-424 457,-424 457,-168 9,-168"/>
<text text-anchor="middle" x="233" y="-408.8" font-family="Times New Roman,serif" font-size="14.00">Topee (swift)</text>
</g>
<g id="clust4" class="cluster"><title>cluster_content_script</title>
<polygon fill="cornsilk" stroke="cornsilk" points="465,-8 465,-330 1015,-330 1015,-8 465,-8"/>
<text text-anchor="middle" x="740" y="-314.8" font-family="Times New Roman,serif" font-size="14.00">content script</text>
</g>
<g id="clust5" class="cluster"><title>cluster_extension</title>
<polygon fill="cornsilk" stroke="cornsilk" points="1581,-349 1581,-424 1740,-424 1740,-349 1581,-349"/>
<text text-anchor="middle" x="1660.5" y="-408.8" font-family="Times New Roman,serif" font-size="14.00">extension</text>
</g>
<g id="clust6" class="cluster"><title>cluster_iframe</title>
<polygon fill="cornsilk" stroke="cornsilk" points="1023,-255 1023,-939 1573,-939 1573,-255 1023,-255"/>
<text text-anchor="middle" x="1298" y="-923.8" font-family="Times New Roman,serif" font-size="14.00">safari&#45;extension:// iframe</text>
</g>
<!-- wv_manageRequest -->
<g id="node1" class="node"><title>wv_manageRequest</title>
<polygon fill="none" stroke="black" points="120,-696 16,-696 16,-660 120,-660 120,-696"/>
<text text-anchor="middle" x="68" y="-674.3" font-family="Times New Roman,serif" font-size="14.00">manageRequest</text>
</g>
<!-- function iframeRequestHandler(message,sender,sendResponse){...} -->
<g id="node4" class="node"><title>function iframeRequestHandler(message,sender,sendResponse){...}</title>
<polygon fill="none" stroke="black" points="533.5,-609 136.5,-609 136.5,-573 533.5,-573 533.5,-609"/>
<text text-anchor="middle" x="335" y="-587.3" font-family="Times New Roman,serif" font-size="14.00">function iframeRequestHandler(message,sender,sendResponse){...}</text>
</g>
<!-- wv_manageRequest&#45;&gt;function iframeRequestHandler(message,sender,sendResponse){...} -->
<g id="edge2" class="edge"><title>wv_manageRequest&#45;&gt;function iframeRequestHandler(message,sender,sendResponse){...}</title>
<path fill="none" stroke="black" d="M120.114,-660.409C163.469,-646.607 225.343,-626.91 271.572,-612.192"/>
<polygon fill="black" stroke="black" points="272.72,-615.5 281.187,-609.131 270.596,-608.83 272.72,-615.5"/>
</g>
<!-- wv_webkit_messageHandlers_content_postMessage -->
<g id="node2" class="node"><title>wv_webkit_messageHandlers_content_postMessage</title>
<polygon fill="none" stroke="black" points="478,-501 202,-501 202,-465 478,-465 478,-501"/>
<text text-anchor="middle" x="340" y="-479.3" font-family="Times New Roman,serif" font-size="14.00">webkit.messageHandlers.content.postMessage</text>
</g>
<!-- swift_userContentController -->
<g id="node8" class="node"><title>swift_userContentController</title>
<polygon fill="none" stroke="black" points="417,-393 277,-393 277,-357 417,-357 417,-393"/>
<text text-anchor="middle" x="347" y="-371.3" font-family="Times New Roman,serif" font-size="14.00">userContentController</text>
</g>
<!-- wv_webkit_messageHandlers_content_postMessage&#45;&gt;swift_userContentController -->
<g id="edge7" class="edge"><title>wv_webkit_messageHandlers_content_postMessage&#45;&gt;swift_userContentController</title>
<path fill="none" stroke="darkred" d="M341.125,-464.969C342.22,-448.378 343.904,-422.883 345.189,-403.431"/>
<polygon fill="darkred" stroke="darkred" points="348.688,-403.55 345.855,-393.341 341.703,-403.088 348.688,-403.55"/>
</g>
<!-- chrome.runtime.onMessage.addListener -->
<g id="node3" class="node"><title>chrome.runtime.onMessage.addListener</title>
<polygon fill="none" stroke="black" points="454.5,-696 215.5,-696 215.5,-660 454.5,-660 454.5,-696"/>
<text text-anchor="middle" x="335" y="-674.3" font-family="Times New Roman,serif" font-size="14.00">chrome.runtime.onMessage.addListener</text>
</g>
<!-- chrome.runtime.onMessage.addListener&#45;&gt;function iframeRequestHandler(message,sender,sendResponse){...} -->
<g id="edge1" class="edge"><title>chrome.runtime.onMessage.addListener&#45;&gt;function iframeRequestHandler(message,sender,sendResponse){...}</title>
<path fill="none" stroke="black" stroke-dasharray="5,2" d="M335,-659.799C335,-648.163 335,-632.548 335,-619.237"/>
<polygon fill="black" stroke="black" points="338.5,-619.175 335,-609.175 331.5,-619.175 338.5,-619.175"/>
</g>
<!-- function iframeRequestHandler(message,sender,sendResponse){...}&#45;&gt;wv_webkit_messageHandlers_content_postMessage -->
<g id="edge3" class="edge"><title>function iframeRequestHandler(message,sender,sendResponse){...}&#45;&gt;wv_webkit_messageHandlers_content_postMessage</title>
<path fill="none" stroke="darkred" d="M335.803,-572.969C336.586,-556.378 337.789,-530.883 338.706,-511.431"/>
<polygon fill="darkred" stroke="darkred" points="342.207,-511.494 339.182,-501.341 335.215,-511.165 342.207,-511.494"/>
<text text-anchor="middle" x="380" y="-533.3" font-family="Times New Roman,serif" font-size="14.00">sendResponse</text>
</g>
<!-- swift_safariextensionhandler -->
<g id="node5" class="node"><title>swift_safariextensionhandler</title>
<polygon fill="none" stroke="black" points="259,-393 95,-393 95,-357 259,-357 259,-393"/>
<text text-anchor="middle" x="177" y="-371.3" font-family="Times New Roman,serif" font-size="14.00">SFSafariExtensionHandler</text>
</g>
<!-- swift_safariextensionbridge -->
<g id="node6" class="node"><title>swift_safariextensionbridge</title>
<polygon fill="none" stroke="black" points="236,-299 96,-299 96,-263 236,-263 236,-299"/>
<text text-anchor="middle" x="166" y="-277.3" font-family="Times New Roman,serif" font-size="14.00">SafariExtensionBridge</text>
</g>
<!-- swift_safariextensionhandler&#45;&gt;swift_safariextensionbridge -->
<g id="edge4" class="edge"><title>swift_safariextensionhandler&#45;&gt;swift_safariextensionbridge</title>
<path fill="none" stroke="black" d="M174.931,-356.696C173.333,-343.331 171.092,-324.587 169.254,-309.219"/>
<polygon fill="black" stroke="black" points="172.722,-308.741 168.06,-299.227 165.772,-309.572 172.722,-308.741"/>
</g>
<!-- swift_evaluatejs -->
<g id="node7" class="node"><title>swift_evaluatejs</title>
<polygon fill="none" stroke="black" points="188.5,-212 17.5,-212 17.5,-176 188.5,-176 188.5,-212"/>
<text text-anchor="middle" x="103" y="-190.3" font-family="Times New Roman,serif" font-size="14.00">webview.evaluateJavaScript</text>
</g>
<!-- swift_safariextensionbridge&#45;&gt;swift_evaluatejs -->
<g id="edge5" class="edge"><title>swift_safariextensionbridge&#45;&gt;swift_evaluatejs</title>
<path fill="none" stroke="black" d="M153.251,-262.799C144.199,-250.587 131.9,-233.992 121.735,-220.278"/>
<polygon fill="black" stroke="black" points="124.496,-218.125 115.73,-212.175 118.873,-222.293 124.496,-218.125"/>
</g>
<!-- swift_evaluatejs&#45;&gt;wv_manageRequest -->
<g id="edge6" class="edge"><title>swift_evaluatejs&#45;&gt;wv_manageRequest</title>
<path fill="none" stroke="black" d="M91.0125,-212.015C80.5401,-228.57 67,-254.839 67,-280 67,-592 67,-592 67,-592 67,-611.249 67.2596,-632.948 67.5142,-649.604"/>
<polygon fill="black" stroke="black" points="64.0169,-649.802 67.6781,-659.744 71.016,-649.689 64.0169,-649.802"/>
</g>
<!-- swift_sendMessageToContentScript -->
<g id="node9" class="node"><title>swift_sendMessageToContentScript</title>
<polygon fill="none" stroke="black" points="440,-299 254,-299 254,-263 440,-263 440,-299"/>
<text text-anchor="middle" x="347" y="-277.3" font-family="Times New Roman,serif" font-size="14.00">sendMessageToContentScript</text>
</g>
<!-- swift_userContentController&#45;&gt;swift_sendMessageToContentScript -->
<g id="edge8" class="edge"><title>swift_userContentController&#45;&gt;swift_sendMessageToContentScript</title>
<path fill="none" stroke="darkred" d="M347,-356.696C347,-343.46 347,-324.947 347,-309.663"/>
<polygon fill="darkred" stroke="darkred" points="350.5,-309.227 347,-299.227 343.5,-309.227 350.5,-309.227"/>
</g>
<!-- swift_dispatchMessageToScript -->
<g id="node10" class="node"><title>swift_dispatchMessageToScript</title>
<polygon fill="none" stroke="black" points="449,-212 207,-212 207,-176 449,-176 449,-212"/>
<text text-anchor="middle" x="328" y="-190.3" font-family="Times New Roman,serif" font-size="14.00">SFSafariPage.dispatchMessageToScript</text>
</g>
<!-- swift_sendMessageToContentScript&#45;&gt;swift_dispatchMessageToScript -->
<g id="edge9" class="edge"><title>swift_sendMessageToContentScript&#45;&gt;swift_dispatchMessageToScript</title>
<path fill="none" stroke="darkred" d="M343.155,-262.799C340.554,-251.163 337.064,-235.548 334.088,-222.237"/>
<polygon fill="darkred" stroke="darkred" points="337.436,-221.171 331.839,-212.175 330.605,-222.698 337.436,-221.171"/>
</g>
<!-- cs_safari_self_addEventListener -->
<g id="node14" class="node"><title>cs_safari_self_addEventListener</title>
<polygon fill="none" stroke="black" points="785.014,-125 500.851,-125 472.986,-89 757.149,-89 785.014,-125"/>
<text text-anchor="middle" x="629" y="-103.3" font-family="Times New Roman,serif" font-size="14.00">safari.self.addEventListener</text>
</g>
<!-- swift_dispatchMessageToScript&#45;&gt;cs_safari_self_addEventListener -->
<g id="edge14" class="edge"><title>swift_dispatchMessageToScript&#45;&gt;cs_safari_self_addEventListener</title>
<path fill="none" stroke="darkred" d="M388.55,-175.901C437.74,-162.01 507.18,-142.401 558.799,-127.824"/>
<polygon fill="darkred" stroke="darkred" points="559.875,-131.157 568.547,-125.071 557.972,-124.421 559.875,-131.157"/>
</g>
<!-- cs_topee_iframe_request -->
<g id="node11" class="node"><title>cs_topee_iframe_request</title>
<polygon fill="none" stroke="black" points="874.5,-212 731.5,-212 731.5,-176 874.5,-176 874.5,-212"/>
<text text-anchor="middle" x="803" y="-190.3" font-family="Times New Roman,serif" font-size="14.00">&#39;topee_iframe_request&#39;</text>
</g>
<!-- cs_safari_extension_dispatchMessage -->
<g id="node13" class="node"><title>cs_safari_extension_dispatchMessage</title>
<polygon fill="none" stroke="black" points="1006.5,-125 803.5,-125 803.5,-89 1006.5,-89 1006.5,-125"/>
<text text-anchor="middle" x="905" y="-103.3" font-family="Times New Roman,serif" font-size="14.00">safari.extension.dispatchMessage</text>
</g>
<!-- cs_topee_iframe_request&#45;&gt;cs_safari_extension_dispatchMessage -->
<g id="edge11" class="edge"><title>cs_topee_iframe_request&#45;&gt;cs_safari_extension_dispatchMessage</title>
<path fill="none" stroke="black" d="M823.641,-175.799C838.849,-163.126 859.72,-145.734 876.515,-131.738"/>
<polygon fill="black" stroke="black" points="878.948,-134.266 884.389,-125.175 874.467,-128.889 878.948,-134.266"/>
</g>
<!-- cs_topee_iframe_request&#45;&gt;cs_safari_self_addEventListener -->
<g id="edge12" class="edge"><title>cs_topee_iframe_request&#45;&gt;cs_safari_self_addEventListener</title>
<path fill="none" stroke="black" stroke-dasharray="5,2" d="M767.789,-175.799C740.459,-162.448 702.409,-143.861 673.06,-129.524"/>
<polygon fill="black" stroke="black" points="674.383,-126.275 663.862,-125.03 671.311,-132.564 674.383,-126.275"/>
<text text-anchor="middle" x="782.5" y="-146.8" font-family="Times New Roman,serif" font-size="14.00">listener message id?</text>
</g>
<!-- cs_window_addEventListener -->
<g id="node12" class="node"><title>cs_window_addEventListener</title>
<polygon fill="none" stroke="black" points="876.5,-299 715.5,-299 715.5,-263 876.5,-263 876.5,-299"/>
<text text-anchor="middle" x="796" y="-277.3" font-family="Times New Roman,serif" font-size="14.00">window.addEventListener</text>
</g>
<!-- cs_window_addEventListener&#45;&gt;cs_topee_iframe_request -->
<g id="edge10" class="edge"><title>cs_window_addEventListener&#45;&gt;cs_topee_iframe_request</title>
<path fill="none" stroke="black" stroke-dasharray="5,2" d="M797.417,-262.799C798.375,-251.163 799.661,-235.548 800.757,-222.237"/>
<polygon fill="black" stroke="black" points="804.253,-222.429 801.586,-212.175 797.277,-221.854 804.253,-222.429"/>
</g>
<!-- cs_safari_extension_dispatchMessage&#45;&gt;swift_safariextensionhandler -->
<g id="edge13" class="edge"><title>cs_safari_extension_dispatchMessage&#45;&gt;swift_safariextensionhandler</title>
<path fill="none" stroke="black" d="M909.97,-125.055C921.037,-167.03 942.445,-275.851 885,-330 860.045,-353.523 301.912,-343.894 268,-349 259.077,-350.344 249.781,-352.266 240.685,-354.457"/>
<polygon fill="black" stroke="black" points="239.76,-351.08 230.922,-356.924 241.475,-357.867 239.76,-351.08"/>
</g>
<!-- cs_event_source_postMessage -->
<g id="node15" class="node"><title>cs_event_source_postMessage</title>
<polygon fill="none" stroke="black" points="933,-52 769,-52 769,-16 933,-16 933,-52"/>
<text text-anchor="middle" x="851" y="-30.3" font-family="Times New Roman,serif" font-size="14.00">event.source.postMessage</text>
</g>
<!-- cs_safari_self_addEventListener&#45;&gt;cs_event_source_postMessage -->
<g id="edge15" class="edge"><title>cs_safari_self_addEventListener&#45;&gt;cs_event_source_postMessage</title>
<path fill="none" stroke="darkred" d="M682.175,-88.9937C713.931,-78.8375 754.447,-65.8795 787.828,-55.2035"/>
<polygon fill="darkred" stroke="darkred" points="789.031,-58.4935 797.49,-52.1136 786.899,-51.8262 789.031,-58.4935"/>
</g>
<!-- decryptingCallback -->
<g id="node23" class="node"><title>decryptingCallback</title>
<polygon fill="none" stroke="black" points="1535.5,-501 1410.5,-501 1410.5,-465 1535.5,-465 1535.5,-501"/>
<text text-anchor="middle" x="1473" y="-479.3" font-family="Times New Roman,serif" font-size="14.00">decryptingCallback</text>
</g>
<!-- cs_event_source_postMessage&#45;&gt;decryptingCallback -->
<g id="edge29" class="edge"><title>cs_event_source_postMessage&#45;&gt;decryptingCallback</title>
<path fill="none" stroke="darkred" d="M933.015,-38.6402C1072.51,-45.9391 1341,-65.2775 1341,-106 1341,-376 1341,-376 1341,-376 1341,-416.2 1378.68,-443.703 1413.78,-460.6"/>
<polygon fill="darkred" stroke="darkred" points="1412.55,-463.887 1423.1,-464.877 1415.47,-457.525 1412.55,-463.887"/>
<text text-anchor="middle" x="1354.5" y="-233.8" font-family="Times New Roman,serif" font-size="14.00">AES</text>
</g>
<!-- response -->
<g id="node16" class="node"><title>response</title>
<polygon fill="none" stroke="black" points="1656.5,-393 1589.5,-393 1589.5,-357 1656.5,-357 1656.5,-393"/>
<text text-anchor="middle" x="1623" y="-371.3" font-family="Times New Roman,serif" font-size="14.00">response</text>
</g>
<!-- request -->
<g id="node17" class="node"><title>request</title>
<polygon fill="none" stroke="black" points="1731.5,-393 1674.5,-393 1674.5,-357 1731.5,-357 1731.5,-393"/>
<text text-anchor="middle" x="1703" y="-371.3" font-family="Times New Roman,serif" font-size="14.00">request</text>
</g>
<!-- chrome.runtime.sendMessage -->
<g id="node19" class="node"><title>chrome.runtime.sendMessage</title>
<polygon fill="none" stroke="black" points="1556,-908 1374,-908 1374,-872 1556,-872 1556,-908"/>
<text text-anchor="middle" x="1465" y="-886.3" font-family="Times New Roman,serif" font-size="14.00">chrome.runtime.sendMessage</text>
</g>
<!-- request&#45;&gt;chrome.runtime.sendMessage -->
<g id="edge30" class="edge"><title>request&#45;&gt;chrome.runtime.sendMessage</title>
<path fill="none" stroke="black" d="M1687.39,-393.331C1671.13,-413.231 1648,-447.584 1648,-482 1648,-818 1648,-818 1648,-818 1648,-839.51 1603.5,-857.07 1558.39,-869.346"/>
<polygon fill="black" stroke="black" points="1557.24,-866.029 1548.47,-871.963 1559.03,-872.797 1557.24,-866.029"/>
</g>
<!-- safari.self.addEventListener -->
<g id="node18" class="node"><title>safari.self.addEventListener</title>
<polygon fill="none" stroke="black" points="1343.01,-696 1058.85,-696 1030.99,-660 1315.15,-660 1343.01,-696"/>
<text text-anchor="middle" x="1187" y="-674.3" font-family="Times New Roman,serif" font-size="14.00">safari.self.addEventListener</text>
</g>
<!-- window.addEventListener -->
<g id="node22" class="node"><title>window.addEventListener</title>
<polygon fill="none" stroke="black" points="1553.5,-609 1392.5,-609 1392.5,-573 1553.5,-573 1553.5,-609"/>
<text text-anchor="middle" x="1473" y="-587.3" font-family="Times New Roman,serif" font-size="14.00">window.addEventListener</text>
</g>
<!-- safari.self.addEventListener&#45;&gt;window.addEventListener -->
<g id="edge19" class="edge"><title>safari.self.addEventListener&#45;&gt;window.addEventListener</title>
<path fill="none" stroke="black" d="M1244.53,-659.901C1291.08,-646.068 1356.7,-626.564 1405.68,-612.006"/>
<polygon fill="black" stroke="black" points="1406.97,-615.275 1415.56,-609.071 1404.98,-608.565 1406.97,-615.275"/>
</g>
<!-- freshListeners -->
<g id="node28" class="node"><title>freshListeners</title>
<ellipse fill="none" stroke="black" cx="1115" cy="-537" rx="61.99" ry="18"/>
<text text-anchor="middle" x="1115" y="-533.3" font-family="Times New Roman,serif" font-size="14.00">freshListeners</text>
</g>
<!-- safari.self.addEventListener&#45;&gt;freshListeners -->
<g id="edge26" class="edge"><title>safari.self.addEventListener&#45;&gt;freshListeners</title>
<path fill="none" stroke="black" stroke-dasharray="5,2" d="M1178.17,-659.956C1165.81,-636.092 1143.23,-592.5 1128.68,-564.414"/>
<polygon fill="black" stroke="black" points="1131.61,-562.453 1123.9,-555.184 1125.39,-565.673 1131.61,-562.453"/>
<text text-anchor="middle" x="1221.5" y="-630.8" font-family="Times New Roman,serif" font-size="14.00">listener message id</text>
</g>
<!-- background&#45;bridge.dispatchRequest -->
<g id="node20" class="node"><title>background&#45;bridge.dispatchRequest</title>
<polygon fill="none" stroke="black" points="1565,-835 1345,-835 1345,-799 1565,-799 1565,-835"/>
<text text-anchor="middle" x="1455" y="-813.3" font-family="Times New Roman,serif" font-size="14.00">background&#45;bridge.dispatchRequest</text>
</g>
<!-- chrome.runtime.sendMessage&#45;&gt;background&#45;bridge.dispatchRequest -->
<g id="edge16" class="edge"><title>chrome.runtime.sendMessage&#45;&gt;background&#45;bridge.dispatchRequest</title>
<path fill="none" stroke="black" d="M1462.58,-871.813C1461.45,-863.789 1460.08,-854.047 1458.81,-845.069"/>
<polygon fill="black" stroke="black" points="1462.26,-844.443 1457.4,-835.029 1455.33,-845.419 1462.26,-844.443"/>
</g>
<!-- background&#45;bridge.dispatchRequest&#45;&gt;safari.self.addEventListener -->
<g id="edge17" class="edge"><title>background&#45;bridge.dispatchRequest&#45;&gt;safari.self.addEventListener</title>
<path fill="none" stroke="black" d="M1421.6,-798.926C1373.02,-774.092 1282.87,-728.008 1229.58,-700.768"/>
<polygon fill="black" stroke="black" points="1230.9,-697.509 1220.4,-696.074 1227.71,-703.742 1230.9,-697.509"/>
<text text-anchor="middle" x="1409" y="-769.8" font-family="Times New Roman,serif" font-size="14.00">callback?</text>
</g>
<!-- safari.extension.dispatchMessage -->
<g id="node21" class="node"><title>safari.extension.dispatchMessage</title>
<polygon fill="none" stroke="black" points="1564.5,-696 1361.5,-696 1361.5,-660 1564.5,-660 1564.5,-696"/>
<text text-anchor="middle" x="1463" y="-674.3" font-family="Times New Roman,serif" font-size="14.00">safari.extension.dispatchMessage</text>
</g>
<!-- background&#45;bridge.dispatchRequest&#45;&gt;safari.extension.dispatchMessage -->
<g id="edge18" class="edge"><title>background&#45;bridge.dispatchRequest&#45;&gt;safari.extension.dispatchMessage</title>
<path fill="none" stroke="black" d="M1456,-798.926C1457.35,-775.75 1459.78,-734.064 1461.4,-706.461"/>
<polygon fill="black" stroke="black" points="1464.9,-706.476 1461.99,-696.289 1457.91,-706.068 1464.9,-706.476"/>
</g>
<!-- got encryption key? -->
<g id="node24" class="node"><title>got encryption key?</title>
<text text-anchor="middle" x="1311" y="-587.3" font-family="Times New Roman,serif" font-size="14.00">got encryption key?</text>
</g>
<!-- safari.extension.dispatchMessage&#45;&gt;got encryption key? -->
<g id="edge21" class="edge"><title>safari.extension.dispatchMessage&#45;&gt;got encryption key?</title>
<path fill="none" stroke="black" d="M1432.24,-659.799C1408.68,-646.622 1375.99,-628.343 1350.49,-614.084"/>
<polygon fill="black" stroke="black" points="1351.89,-610.856 1341.45,-609.03 1348.47,-616.966 1351.89,-610.856"/>
</g>
<!-- window.addEventListener&#45;&gt;decryptingCallback -->
<g id="edge20" class="edge"><title>window.addEventListener&#45;&gt;decryptingCallback</title>
<path fill="none" stroke="black" stroke-dasharray="5,2" d="M1473,-572.969C1473,-556.378 1473,-530.883 1473,-511.431"/>
<polygon fill="black" stroke="black" points="1476.5,-511.341 1473,-501.341 1469.5,-511.341 1476.5,-511.341"/>
</g>
<!-- decryptingCallback&#45;&gt;response -->
<g id="edge31" class="edge"><title>decryptingCallback&#45;&gt;response</title>
<path fill="none" stroke="darkred" d="M1509.78,-464.886C1530.46,-454.45 1556.22,-440.05 1577,-424 1585.77,-417.226 1594.43,-408.783 1601.83,-400.875"/>
<polygon fill="darkred" stroke="darkred" points="1604.64,-402.985 1608.77,-393.226 1599.46,-398.281 1604.64,-402.985"/>
<text text-anchor="middle" x="1586" y="-435.8" font-family="Times New Roman,serif" font-size="14.00">callback</text>
</g>
<!-- bufferMessage -->
<g id="node25" class="node"><title>bufferMessage</title>
<polygon fill="none" stroke="black" points="1281.5,-501 1182.5,-501 1182.5,-465 1281.5,-465 1281.5,-501"/>
<text text-anchor="middle" x="1232" y="-479.3" font-family="Times New Roman,serif" font-size="14.00">bufferMessage</text>
</g>
<!-- got encryption key?&#45;&gt;bufferMessage -->
<g id="edge22" class="edge"><title>got encryption key?&#45;&gt;bufferMessage</title>
<path fill="none" stroke="black" d="M1298.31,-572.969C1285.54,-555.84 1265.7,-529.221 1251.05,-509.559"/>
<polygon fill="black" stroke="black" points="1253.71,-507.267 1244.92,-501.341 1248.09,-511.45 1253.71,-507.267"/>
<text text-anchor="middle" x="1285.5" y="-533.3" font-family="Times New Roman,serif" font-size="14.00">&#45;</text>
</g>
<!-- dispatchMessage -->
<g id="node26" class="node"><title>dispatchMessage</title>
<polygon fill="none" stroke="black" points="1284.5,-393 1171.5,-393 1171.5,-357 1284.5,-357 1284.5,-393"/>
<text text-anchor="middle" x="1228" y="-371.3" font-family="Times New Roman,serif" font-size="14.00">dispatchMessage</text>
</g>
<!-- got encryption key?&#45;&gt;dispatchMessage -->
<g id="edge23" class="edge"><title>got encryption key?&#45;&gt;dispatchMessage</title>
<path fill="none" stroke="black" d="M1311.15,-572.876C1310.79,-546.802 1307.75,-496.056 1291,-457 1281.97,-435.947 1266.12,-415.607 1252.57,-400.576"/>
<polygon fill="black" stroke="black" points="1255.12,-398.173 1245.75,-393.224 1249.99,-402.935 1255.12,-398.173"/>
<text text-anchor="middle" x="1307.5" y="-479.3" font-family="Times New Roman,serif" font-size="14.00">+</text>
</g>
<!-- bufferMessage&#45;&gt;dispatchMessage -->
<g id="edge24" class="edge"><title>bufferMessage&#45;&gt;dispatchMessage</title>
<path fill="none" stroke="black" stroke-dasharray="5,2" d="M1231.36,-464.969C1230.73,-448.378 1229.77,-422.883 1229.04,-403.431"/>
<polygon fill="black" stroke="black" points="1232.53,-403.201 1228.65,-393.341 1225.53,-403.466 1232.53,-403.201"/>
</g>
<!-- window.parent.postMessage -->
<g id="node27" class="node"><title>window.parent.postMessage</title>
<polygon fill="none" stroke="black" points="1260,-299 1084,-299 1084,-263 1260,-263 1260,-299"/>
<text text-anchor="middle" x="1172" y="-277.3" font-family="Times New Roman,serif" font-size="14.00">window.parent.postMessage</text>
</g>
<!-- dispatchMessage&#45;&gt;window.parent.postMessage -->
<g id="edge25" class="edge"><title>dispatchMessage&#45;&gt;window.parent.postMessage</title>
<path fill="none" stroke="black" d="M1217.47,-356.696C1209.1,-342.946 1197.26,-323.501 1187.76,-307.898"/>
<polygon fill="black" stroke="black" points="1190.68,-305.949 1182.49,-299.227 1184.7,-309.589 1190.68,-305.949"/>
</g>
<!-- window.parent.postMessage&#45;&gt;cs_topee_iframe_request -->
<g id="edge28" class="edge"><title>window.parent.postMessage&#45;&gt;cs_topee_iframe_request</title>
<path fill="none" stroke="black" d="M1097.77,-262.901C1036.04,-248.682 948.301,-228.47 884.609,-213.799"/>
<polygon fill="black" stroke="black" points="885.131,-210.328 874.601,-211.493 883.56,-217.149 885.131,-210.328"/>
<text text-anchor="middle" x="1023.5" y="-233.8" font-family="Times New Roman,serif" font-size="14.00">AES</text>
</g>
<!-- freshListeners&#45;&gt;dispatchMessage -->
<g id="edge27" class="edge"><title>freshListeners&#45;&gt;dispatchMessage</title>
<path fill="none" stroke="black" stroke-dasharray="5,2" d="M1086.03,-520.901C1078.83,-515.637 1072.02,-509.001 1068,-501 1059.22,-483.524 1057.76,-473.661 1068,-457 1088.49,-423.662 1127.43,-403.535 1161.76,-391.683"/>
<polygon fill="black" stroke="black" points="1162.89,-394.996 1171.3,-388.555 1160.71,-388.344 1162.89,-394.996"/>
<text text-anchor="middle" x="1120.5" y="-479.3" font-family="Times New Roman,serif" font-size="14.00">listener message id</text>
</g>
</g>
</svg>
